<?xml version="1.0" encoding="UTF-8" standalone="no"?><svg xmlns="http://www.w3.org/2000/svg" xmlns:xlink="http://www.w3.org/1999/xlink" contentScriptType="application/ecmascript" contentStyleType="text/css" height="1393px" preserveAspectRatio="none" style="width:1943px;height:1393px;" version="1.1" viewBox="0 0 1943 1393" width="1943px" zoomAndPan="magnify"><defs><filter height="300%" id="fsm78wvu0q1zo" width="300%" x="-1" y="-1"><feGaussianBlur result="blurOut" stdDeviation="2.0"/><feColorMatrix in="blurOut" result="blurOut2" type="matrix" values="0 0 0 0 0 0 0 0 0 0 0 0 0 0 0 0 0 0 .4 0"/><feOffset dx="4.0" dy="4.0" in="blurOut2" result="blurOut3"/><feBlend in="SourceGraphic" in2="blurOut3" mode="normal"/></filter></defs><g><text fill="#000000" font-family="sans-serif" font-size="18" lengthAdjust="spacingAndGlyphs" textLength="195" x="873.2813" y="28.0967">ATM Activity Diagram</text><ellipse cx="496.3125" cy="71.0313" fill="#000000" filter="url(#fsm78wvu0q1zo)" rx="10" ry="10" style="stroke: none; stroke-width: 1.0;"/><rect fill="#CCCCCC" filter="url(#fsm78wvu0q1zo)" height="33.3687" rx="12.5" ry="12.5" style="stroke: #AAAAAA; stroke-width: 1.5;" width="86" x="453.3125" y="101.0313"/><text fill="#000000" font-family="Verdana" font-size="11" lengthAdjust="spacingAndGlyphs" textLength="66" x="463.3125" y="122.0903">Insert Card</text><rect fill="#CCCCCC" filter="url(#fsm78wvu0q1zo)" height="33.3687" rx="12.5" ry="12.5" style="stroke: #AAAAAA; stroke-width: 1.5;" width="74" x="338.125" y="305.1372"/><text fill="#000000" font-family="Verdana" font-size="11" lengthAdjust="spacingAndGlyphs" textLength="54" x="348.125" y="326.1963">Enter PIN</text><rect fill="#CCCCCC" filter="url(#fsm78wvu0q1zo)" height="33.3687" rx="12.5" ry="12.5" style="stroke: #AAAAAA; stroke-width: 1.5;" width="110" x="124.75" y="562.6118"/><text fill="#000000" font-family="Verdana" font-size="11" lengthAdjust="spacingAndGlyphs" textLength="90" x="134.75" y="583.6709">Chooses Option</text><rect fill="#CCCCCC" filter="url(#fsm78wvu0q1zo)" height="33.3687" rx="12.5" ry="12.5" style="stroke: #AAAAAA; stroke-width: 1.5;" width="87" x="20" y="728.3491"/><text fill="#000000" font-family="Verdana" font-size="11" lengthAdjust="spacingAndGlyphs" textLength="67" x="30" y="749.4082">Insert Cash</text><ellipse cx="63.5" cy="1217.9297" fill="#FFFFFF" filter="url(#fsm78wvu0q1zo)" rx="11" ry="11" style="stroke: #000000; stroke-width: 1.0;"/><ellipse cx="63.5" cy="1217.9297" fill="#000000" rx="6" ry="6" style="stroke: #7F7F7F; stroke-width: 1.0;"/><rect fill="#CCCCCC" filter="url(#fsm78wvu0q1zo)" height="33.3687" rx="12.5" ry="12.5" style="stroke: #AAAAAA; stroke-width: 1.5;" width="92" x="117" y="1226.561"/><text fill="#000000" font-family="Verdana" font-size="11" lengthAdjust="spacingAndGlyphs" textLength="72" x="127" y="1247.6201">Collect Cash</text><ellipse cx="163" cy="1290.9297" fill="#FFFFFF" filter="url(#fsm78wvu0q1zo)" rx="11" ry="11" style="stroke: #000000; stroke-width: 1.0;"/><ellipse cx="163" cy="1290.9297" fill="#000000" rx="6" ry="6" style="stroke: #7F7F7F; stroke-width: 1.0;"/><ellipse cx="255.75" cy="895.7178" fill="#FFFFFF" filter="url(#fsm78wvu0q1zo)" rx="11" ry="11" style="stroke: #000000; stroke-width: 1.0;"/><ellipse cx="255.75" cy="895.7178" fill="#000000" rx="6" ry="6" style="stroke: #7F7F7F; stroke-width: 1.0;"/><ellipse cx="368.75" cy="1169.1924" fill="#FFFFFF" filter="url(#fsm78wvu0q1zo)" rx="11" ry="11" style="stroke: #000000; stroke-width: 1.0;"/><ellipse cx="368.75" cy="1169.1924" fill="#000000" rx="6" ry="6" style="stroke: #7F7F7F; stroke-width: 1.0;"/><ellipse cx="433.125" cy="895.7178" fill="#FFFFFF" filter="url(#fsm78wvu0q1zo)" rx="11" ry="11" style="stroke: #000000; stroke-width: 1.0;"/><ellipse cx="433.125" cy="895.7178" fill="#000000" rx="6" ry="6" style="stroke: #7F7F7F; stroke-width: 1.0;"/><ellipse cx="560.3125" cy="626.9805" fill="#FFFFFF" filter="url(#fsm78wvu0q1zo)" rx="11" ry="11" style="stroke: #000000; stroke-width: 1.0;"/><ellipse cx="560.3125" cy="626.9805" fill="#000000" rx="6" ry="6" style="stroke: #7F7F7F; stroke-width: 1.0;"/><ellipse cx="592.3125" cy="316.1372" fill="#FFFFFF" filter="url(#fsm78wvu0q1zo)" rx="11" ry="11" style="stroke: #000000; stroke-width: 1.0;"/><ellipse cx="592.3125" cy="316.1372" fill="#000000" rx="6" ry="6" style="stroke: #7F7F7F; stroke-width: 1.0;"/><rect fill="#CCCCCC" filter="url(#fsm78wvu0q1zo)" height="33.3687" rx="12.5" ry="12.5" style="stroke: #AAAAAA; stroke-width: 1.5;" width="86" x="1283" y="154.3999"/><text fill="#000000" font-family="Verdana" font-size="11" lengthAdjust="spacingAndGlyphs" textLength="66" x="1293" y="175.459">Verify Card</text><polygon fill="#FEFECE" filter="url(#fsm78wvu0q1zo)" points="1301.5,207.7686,1350.5,207.7686,1362.5,219.7686,1350.5,231.7686,1301.5,231.7686,1289.5,219.7686,1301.5,207.7686" style="stroke: #A80036; stroke-width: 1.5;"/><text fill="#000000" font-family="sans-serif" font-size="11" lengthAdjust="spacingAndGlyphs" textLength="49" x="1301.5" y="224.1433">Is Valid?</text><text fill="#333333" font-family="Verdana" font-size="11" lengthAdjust="spacingAndGlyphs" textLength="20" x="1269.5" y="217.459">yes</text><text fill="#333333" font-family="Verdana" font-size="11" lengthAdjust="spacingAndGlyphs" textLength="14" x="1362.5" y="217.459">no</text><rect fill="#CCCCCC" filter="url(#fsm78wvu0q1zo)" height="33.3687" rx="12.5" ry="12.5" style="stroke: #AAAAAA; stroke-width: 1.5;" width="90" x="1084.1875" y="251.7686"/><text fill="#000000" font-family="Verdana" font-size="11" lengthAdjust="spacingAndGlyphs" textLength="70" x="1094.1875" y="272.8276">Request PIN</text><rect fill="#CCCCCC" filter="url(#fsm78wvu0q1zo)" height="33.3687" rx="12.5" ry="12.5" style="stroke: #AAAAAA; stroke-width: 1.5;" width="134" x="1062.1875" y="358.5059"/><text fill="#000000" font-family="Verdana" font-size="11" lengthAdjust="spacingAndGlyphs" textLength="114" x="1072.1875" y="379.5649">Send Number &amp; PIN</text><polygon fill="#FEFECE" filter="url(#fsm78wvu0q1zo)" points="1092.6875,465.2432,1165.6875,465.2432,1177.6875,477.2432,1165.6875,489.2432,1092.6875,489.2432,1080.6875,477.2432,1092.6875,465.2432" style="stroke: #A80036; stroke-width: 1.5;"/><text fill="#000000" font-family="sans-serif" font-size="11" lengthAdjust="spacingAndGlyphs" textLength="73" x="1092.6875" y="481.6179">Correct PIN?</text><text fill="#333333" font-family="Verdana" font-size="11" lengthAdjust="spacingAndGlyphs" textLength="20" x="1060.6875" y="474.9336">yes</text><text fill="#333333" font-family="Verdana" font-size="11" lengthAdjust="spacingAndGlyphs" textLength="14" x="1177.6875" y="474.9336">no</text><rect fill="#CCCCCC" filter="url(#fsm78wvu0q1zo)" height="33.3687" rx="12.5" ry="12.5" style="stroke: #AAAAAA; stroke-width: 1.5;" width="85" x="813.0625" y="509.2432"/><text fill="#000000" font-family="Verdana" font-size="11" lengthAdjust="spacingAndGlyphs" textLength="65" x="823.0625" y="530.3022">Show Menu</text><polygon fill="#FEFECE" filter="url(#fsm78wvu0q1zo)" points="837.0625,615.9805,874.0625,615.9805,886.0625,627.9805,874.0625,639.9805,837.0625,639.9805,825.0625,627.9805,837.0625,615.9805" style="stroke: #A80036; stroke-width: 1.5;"/><text fill="#000000" font-family="sans-serif" font-size="11" lengthAdjust="spacingAndGlyphs" textLength="37" x="837.0625" y="632.3552">Option</text><text fill="#333333" font-family="Verdana" font-size="11" lengthAdjust="spacingAndGlyphs" textLength="43" x="782.0625" y="625.6709">Deposit</text><rect fill="#CCCCCC" filter="url(#fsm78wvu0q1zo)" height="33.3687" rx="12.5" ry="12.5" style="stroke: #AAAAAA; stroke-width: 1.5;" width="154" x="613.3125" y="659.9805"/><text fill="#000000" font-family="Verdana" font-size="11" lengthAdjust="spacingAndGlyphs" textLength="134" x="623.3125" y="681.0396">Request Cash Insertion</text><rect fill="#CCCCCC" filter="url(#fsm78wvu0q1zo)" height="33.3687" rx="12.5" ry="12.5" style="stroke: #AAAAAA; stroke-width: 1.5;" width="87" x="646.8125" y="796.7178"/><text fill="#000000" font-family="Verdana" font-size="11" lengthAdjust="spacingAndGlyphs" textLength="67" x="656.8125" y="817.7769">Count Cash</text><rect fill="#CCCCCC" filter="url(#fsm78wvu0q1zo)" height="33.3687" rx="12.5" ry="12.5" style="stroke: #AAAAAA; stroke-width: 1.5;" width="146" x="617.3125" y="865.0864"/><text fill="#000000" font-family="Verdana" font-size="11" lengthAdjust="spacingAndGlyphs" textLength="126" x="627.3125" y="886.1455">Send Deposit Request</text><rect fill="#CCCCCC" filter="url(#fsm78wvu0q1zo)" height="33.3687" rx="12.5" ry="12.5" style="stroke: #AAAAAA; stroke-width: 1.5;" width="117" x="631.8125" y="1070.1924"/><text fill="#000000" font-family="Verdana" font-size="11" lengthAdjust="spacingAndGlyphs" textLength="97" x="641.8125" y="1091.2515">Show Completed</text><rect fill="#CCCCCC" filter="url(#fsm78wvu0q1zo)" height="33.3687" rx="12.5" ry="12.5" style="stroke: #AAAAAA; stroke-width: 1.5;" width="90" x="645.3125" y="1138.561"/><text fill="#000000" font-family="Verdana" font-size="11" lengthAdjust="spacingAndGlyphs" textLength="70" x="655.3125" y="1159.6201">Return Card</text><polygon fill="#FEFECE" filter="url(#fsm78wvu0q1zo)" points="994.8125,659.9805,1106.8125,659.9805,1118.8125,671.9805,1106.8125,683.9805,994.8125,683.9805,982.8125,671.9805,994.8125,659.9805" style="stroke: #A80036; stroke-width: 1.5;"/><text fill="#000000" font-family="sans-serif" font-size="11" lengthAdjust="spacingAndGlyphs" textLength="112" x="994.8125" y="676.3552">Withdraw/Transfer?</text><text fill="#333333" font-family="Verdana" font-size="11" lengthAdjust="spacingAndGlyphs" textLength="53" x="929.8125" y="669.6709">Withdraw</text><text fill="#333333" font-family="Verdana" font-size="11" lengthAdjust="spacingAndGlyphs" textLength="48" x="1118.8125" y="669.6709">Transfer</text><polygon fill="#FEFECE" filter="url(#fsm78wvu0q1zo)" points="860.8125,703.9805,956.8125,703.9805,968.8125,715.9805,956.8125,727.9805,860.8125,727.9805,848.8125,715.9805,860.8125,703.9805" style="stroke: #A80036; stroke-width: 1.5;"/><text fill="#000000" font-family="sans-serif" font-size="11" lengthAdjust="spacingAndGlyphs" textLength="96" x="860.8125" y="720.3552">Sufficient Funds?</text><text fill="#333333" font-family="Verdana" font-size="11" lengthAdjust="spacingAndGlyphs" textLength="20" x="828.8125" y="713.6709">yes</text><text fill="#333333" font-family="Verdana" font-size="11" lengthAdjust="spacingAndGlyphs" textLength="14" x="968.8125" y="713.6709">no</text><rect fill="#CCCCCC" filter="url(#fsm78wvu0q1zo)" height="33.3687" rx="12.5" ry="12.5" style="stroke: #AAAAAA; stroke-width: 1.5;" width="123" x="777.3125" y="747.9805"/><text fill="#000000" font-family="Verdana" font-size="11" lengthAdjust="spacingAndGlyphs" textLength="103" x="787.3125" y="769.0396">Withdraw Request</text><rect fill="#CCCCCC" filter="url(#fsm78wvu0q1zo)" height="33.3687" rx="12.5" ry="12.5" style="stroke: #AAAAAA; stroke-width: 1.5;" width="115" x="781.3125" y="816.3491"/><text fill="#000000" font-family="Verdana" font-size="11" lengthAdjust="spacingAndGlyphs" textLength="95" x="791.3125" y="837.4082">Request Balance</text><rect fill="#CCCCCC" filter="url(#fsm78wvu0q1zo)" height="33.3687" rx="12.5" ry="12.5" style="stroke: #AAAAAA; stroke-width: 1.5;" width="117" x="780.3125" y="1021.4551"/><text fill="#000000" font-family="Verdana" font-size="11" lengthAdjust="spacingAndGlyphs" textLength="97" x="790.3125" y="1042.5142">Show Completed</text><rect fill="#CCCCCC" filter="url(#fsm78wvu0q1zo)" height="33.3687" rx="12.5" ry="12.5" style="stroke: #AAAAAA; stroke-width: 1.5;" width="79" x="799.3125" y="1089.8237"/><text fill="#000000" font-family="Verdana" font-size="11" lengthAdjust="spacingAndGlyphs" textLength="59" x="809.3125" y="1110.8828">Give Cash</text><rect fill="#CCCCCC" filter="url(#fsm78wvu0q1zo)" height="33.3687" rx="12.5" ry="12.5" style="stroke: #AAAAAA; stroke-width: 1.5;" width="90" x="793.8125" y="1158.1924"/><text fill="#000000" font-family="Verdana" font-size="11" lengthAdjust="spacingAndGlyphs" textLength="70" x="803.8125" y="1179.2515">Return Card</text><rect fill="#CCCCCC" filter="url(#fsm78wvu0q1zo)" height="33.3687" rx="12.5" ry="12.5" style="stroke: #AAAAAA; stroke-width: 1.5;" width="84" x="936.8125" y="747.9805"/><text fill="#000000" font-family="Verdana" font-size="11" lengthAdjust="spacingAndGlyphs" textLength="64" x="946.8125" y="769.0396">Show Error</text><rect fill="#CCCCCC" filter="url(#fsm78wvu0q1zo)" height="33.3687" rx="12.5" ry="12.5" style="stroke: #AAAAAA; stroke-width: 1.5;" width="90" x="933.8125" y="816.3491"/><text fill="#000000" font-family="Verdana" font-size="11" lengthAdjust="spacingAndGlyphs" textLength="70" x="943.8125" y="837.4082">Return Card</text><polygon fill="#FEFECE" filter="url(#fsm78wvu0q1zo)" points="1144.8125,703.9805,1240.8125,703.9805,1252.8125,715.9805,1240.8125,727.9805,1144.8125,727.9805,1132.8125,715.9805,1144.8125,703.9805" style="stroke: #A80036; stroke-width: 1.5;"/><text fill="#000000" font-family="sans-serif" font-size="11" lengthAdjust="spacingAndGlyphs" textLength="96" x="1144.8125" y="720.3552">Sufficient Funds?</text><text fill="#333333" font-family="Verdana" font-size="11" lengthAdjust="spacingAndGlyphs" textLength="20" x="1112.8125" y="713.6709">yes</text><text fill="#333333" font-family="Verdana" font-size="11" lengthAdjust="spacingAndGlyphs" textLength="14" x="1252.8125" y="713.6709">no</text><rect fill="#CCCCCC" filter="url(#fsm78wvu0q1zo)" height="33.3687" rx="12.5" ry="12.5" style="stroke: #AAAAAA; stroke-width: 1.5;" width="118" x="1063.8125" y="747.9805"/><text fill="#000000" font-family="Verdana" font-size="11" lengthAdjust="spacingAndGlyphs" textLength="98" x="1073.8125" y="769.0396">Transfer Request</text><rect fill="#CCCCCC" filter="url(#fsm78wvu0q1zo)" height="33.3687" rx="12.5" ry="12.5" style="stroke: #AAAAAA; stroke-width: 1.5;" width="115" x="1065.3125" y="816.3491"/><text fill="#000000" font-family="Verdana" font-size="11" lengthAdjust="spacingAndGlyphs" textLength="95" x="1075.3125" y="837.4082">Request Balance</text><rect fill="#CCCCCC" filter="url(#fsm78wvu0q1zo)" height="33.3687" rx="12.5" ry="12.5" style="stroke: #AAAAAA; stroke-width: 1.5;" width="117" x="1064.3125" y="1021.4551"/><text fill="#000000" font-family="Verdana" font-size="11" lengthAdjust="spacingAndGlyphs" textLength="97" x="1074.3125" y="1042.5142">Show Completed</text><rect fill="#CCCCCC" filter="url(#fsm78wvu0q1zo)" height="33.3687" rx="12.5" ry="12.5" style="stroke: #AAAAAA; stroke-width: 1.5;" width="90" x="1077.8125" y="1089.8237"/><text fill="#000000" font-family="Verdana" font-size="11" lengthAdjust="spacingAndGlyphs" textLength="70" x="1087.8125" y="1110.8828">Return Card</text><rect fill="#CCCCCC" filter="url(#fsm78wvu0q1zo)" height="33.3687" rx="12.5" ry="12.5" style="stroke: #AAAAAA; stroke-width: 1.5;" width="84" x="1220.8125" y="747.9805"/><text fill="#000000" font-family="Verdana" font-size="11" lengthAdjust="spacingAndGlyphs" textLength="64" x="1230.8125" y="769.0396">Show Error</text><rect fill="#CCCCCC" filter="url(#fsm78wvu0q1zo)" height="33.3687" rx="12.5" ry="12.5" style="stroke: #AAAAAA; stroke-width: 1.5;" width="90" x="1217.8125" y="816.3491"/><text fill="#000000" font-family="Verdana" font-size="11" lengthAdjust="spacingAndGlyphs" textLength="70" x="1227.8125" y="837.4082">Return Card</text><rect fill="#CCCCCC" filter="url(#fsm78wvu0q1zo)" height="33.3687" rx="12.5" ry="12.5" style="stroke: #AAAAAA; stroke-width: 1.5;" width="84" x="1360.8125" y="509.2432"/><text fill="#000000" font-family="Verdana" font-size="11" lengthAdjust="spacingAndGlyphs" textLength="64" x="1370.8125" y="530.3022">Show Error</text><rect fill="#CCCCCC" filter="url(#fsm78wvu0q1zo)" height="33.3687" rx="12.5" ry="12.5" style="stroke: #AAAAAA; stroke-width: 1.5;" width="90" x="1357.8125" y="562.6118"/><text fill="#000000" font-family="Verdana" font-size="11" lengthAdjust="spacingAndGlyphs" textLength="70" x="1367.8125" y="583.6709">Return Card</text><rect fill="#CCCCCC" filter="url(#fsm78wvu0q1zo)" height="33.3687" rx="12.5" ry="12.5" style="stroke: #AAAAAA; stroke-width: 1.5;" width="90" x="1457.8125" y="251.7686"/><text fill="#000000" font-family="Verdana" font-size="11" lengthAdjust="spacingAndGlyphs" textLength="70" x="1467.8125" y="272.8276">Return Card</text><rect fill="#CCCCCC" filter="url(#fsm78wvu0q1zo)" height="33.3687" rx="12.5" ry="12.5" style="stroke: #AAAAAA; stroke-width: 1.5;" width="78" x="1835.9375" y="411.8745"/><text fill="#000000" font-family="Verdana" font-size="11" lengthAdjust="spacingAndGlyphs" textLength="58" x="1845.9375" y="432.9336">Verify PIN</text><rect fill="#CCCCCC" filter="url(#fsm78wvu0q1zo)" height="33.3687" rx="12.5" ry="12.5" style="stroke: #AAAAAA; stroke-width: 1.5;" width="100" x="1561.8125" y="933.4551"/><text fill="#000000" font-family="Verdana" font-size="11" lengthAdjust="spacingAndGlyphs" textLength="80" x="1571.8125" y="954.5142">Deposit Funds</text><rect fill="#CCCCCC" filter="url(#fsm78wvu0q1zo)" height="33.3687" rx="12.5" ry="12.5" style="stroke: #AAAAAA; stroke-width: 1.5;" width="108" x="1557.8125" y="1001.8237"/><text fill="#000000" font-family="Verdana" font-size="11" lengthAdjust="spacingAndGlyphs" textLength="88" x="1567.8125" y="1022.8828">Return Success</text><rect fill="#CCCCCC" filter="url(#fsm78wvu0q1zo)" height="33.3687" rx="12.5" ry="12.5" style="stroke: #AAAAAA; stroke-width: 1.5;" width="107" x="1676.3125" y="884.7178"/><text fill="#000000" font-family="Verdana" font-size="11" lengthAdjust="spacingAndGlyphs" textLength="87" x="1686.3125" y="905.7769">Return Balance</text><rect fill="#CCCCCC" filter="url(#fsm78wvu0q1zo)" height="33.3687" rx="12.5" ry="12.5" style="stroke: #AAAAAA; stroke-width: 1.5;" width="108" x="1675.8125" y="953.0864"/><text fill="#000000" font-family="Verdana" font-size="11" lengthAdjust="spacingAndGlyphs" textLength="88" x="1685.8125" y="974.1455">Return Success</text><rect fill="#CCCCCC" filter="url(#fsm78wvu0q1zo)" height="33.3687" rx="12.5" ry="12.5" style="stroke: #AAAAAA; stroke-width: 1.5;" width="107" x="1815.0625" y="884.7178"/><text fill="#000000" font-family="Verdana" font-size="11" lengthAdjust="spacingAndGlyphs" textLength="87" x="1825.0625" y="905.7769">Return Balance</text><rect fill="#CCCCCC" filter="url(#fsm78wvu0q1zo)" height="33.3687" rx="12.5" ry="12.5" style="stroke: #AAAAAA; stroke-width: 1.5;" width="108" x="1814.5625" y="953.0864"/><text fill="#000000" font-family="Verdana" font-size="11" lengthAdjust="spacingAndGlyphs" textLength="88" x="1824.5625" y="974.1455">Return Success</text><line style="stroke: #000000; stroke-width: 1.5;" x1="496.3125" x2="496.3125" y1="81.0313" y2="101.0313"/><polygon fill="#000000" points="492.3125,91.0313,496.3125,101.0313,500.3125,91.0313,496.3125,95.0313" style="stroke: #000000; stroke-width: 1.0;"/><line style="stroke: #000000; stroke-width: 1.5;" x1="163" x2="163" y1="1259.9297" y2="1279.9297"/><polygon fill="#000000" points="159,1269.9297,163,1279.9297,167,1269.9297,163,1273.9297" style="stroke: #000000; stroke-width: 1.0;"/><line style="stroke: #000000; stroke-width: 1.5;" x1="690.3125" x2="690.3125" y1="830.0864" y2="865.0864"/><polygon fill="#000000" points="686.3125,855.0864,690.3125,865.0864,694.3125,855.0864,690.3125,859.0864" style="stroke: #000000; stroke-width: 1.0;"/><line style="stroke: #000000; stroke-width: 1.5;" x1="690.3125" x2="690.3125" y1="1103.561" y2="1138.561"/><polygon fill="#000000" points="686.3125,1128.561,690.3125,1138.561,694.3125,1128.561,690.3125,1132.561" style="stroke: #000000; stroke-width: 1.0;"/><line style="stroke: #000000; stroke-width: 1.5;" x1="838.8125" x2="838.8125" y1="781.3491" y2="816.3491"/><polygon fill="#000000" points="834.8125,806.3491,838.8125,816.3491,842.8125,806.3491,838.8125,810.3491" style="stroke: #000000; stroke-width: 1.0;"/><line style="stroke: #000000; stroke-width: 1.5;" x1="838.8125" x2="838.8125" y1="1054.8237" y2="1089.8237"/><polygon fill="#000000" points="834.8125,1079.8237,838.8125,1089.8237,842.8125,1079.8237,838.8125,1083.8237" style="stroke: #000000; stroke-width: 1.0;"/><line style="stroke: #000000; stroke-width: 1.5;" x1="838.8125" x2="838.8125" y1="1123.1924" y2="1158.1924"/><polygon fill="#000000" points="834.8125,1148.1924,838.8125,1158.1924,842.8125,1148.1924,838.8125,1152.1924" style="stroke: #000000; stroke-width: 1.0;"/><line style="stroke: #000000; stroke-width: 1.5;" x1="978.8125" x2="978.8125" y1="781.3491" y2="816.3491"/><polygon fill="#000000" points="974.8125,806.3491,978.8125,816.3491,982.8125,806.3491,978.8125,810.3491" style="stroke: #000000; stroke-width: 1.0;"/><line style="stroke: #000000; stroke-width: 1.5;" x1="848.8125" x2="838.8125" y1="715.9805" y2="715.9805"/><line style="stroke: #000000; stroke-width: 1.5;" x1="838.8125" x2="838.8125" y1="715.9805" y2="747.9805"/><polygon fill="#000000" points="834.8125,737.9805,838.8125,747.9805,842.8125,737.9805,838.8125,741.9805" style="stroke: #000000; stroke-width: 1.0;"/><line style="stroke: #000000; stroke-width: 1.5;" x1="968.8125" x2="978.8125" y1="715.9805" y2="715.9805"/><line style="stroke: #000000; stroke-width: 1.5;" x1="978.8125" x2="978.8125" y1="715.9805" y2="747.9805"/><polygon fill="#000000" points="974.8125,737.9805,978.8125,747.9805,982.8125,737.9805,978.8125,741.9805" style="stroke: #000000; stroke-width: 1.0;"/><line style="stroke: #000000; stroke-width: 1.5;" x1="1122.8125" x2="1122.8125" y1="781.3491" y2="816.3491"/><polygon fill="#000000" points="1118.8125,806.3491,1122.8125,816.3491,1126.8125,806.3491,1122.8125,810.3491" style="stroke: #000000; stroke-width: 1.0;"/><line style="stroke: #000000; stroke-width: 1.5;" x1="1122.8125" x2="1122.8125" y1="1054.8237" y2="1089.8237"/><polygon fill="#000000" points="1118.8125,1079.8237,1122.8125,1089.8237,1126.8125,1079.8237,1122.8125,1083.8237" style="stroke: #000000; stroke-width: 1.0;"/><line style="stroke: #000000; stroke-width: 1.5;" x1="1262.8125" x2="1262.8125" y1="781.3491" y2="816.3491"/><polygon fill="#000000" points="1258.8125,806.3491,1262.8125,816.3491,1266.8125,806.3491,1262.8125,810.3491" style="stroke: #000000; stroke-width: 1.0;"/><line style="stroke: #000000; stroke-width: 1.5;" x1="1132.8125" x2="1122.8125" y1="715.9805" y2="715.9805"/><line style="stroke: #000000; stroke-width: 1.5;" x1="1122.8125" x2="1122.8125" y1="715.9805" y2="747.9805"/><polygon fill="#000000" points="1118.8125,737.9805,1122.8125,747.9805,1126.8125,737.9805,1122.8125,741.9805" style="stroke: #000000; stroke-width: 1.0;"/><line style="stroke: #000000; stroke-width: 1.5;" x1="1252.8125" x2="1262.8125" y1="715.9805" y2="715.9805"/><line style="stroke: #000000; stroke-width: 1.5;" x1="1262.8125" x2="1262.8125" y1="715.9805" y2="747.9805"/><polygon fill="#000000" points="1258.8125,737.9805,1262.8125,747.9805,1266.8125,737.9805,1262.8125,741.9805" style="stroke: #000000; stroke-width: 1.0;"/><line style="stroke: #000000; stroke-width: 1.5;" x1="982.8125" x2="908.8125" y1="671.9805" y2="671.9805"/><line style="stroke: #000000; stroke-width: 1.5;" x1="908.8125" x2="908.8125" y1="671.9805" y2="703.9805"/><polygon fill="#000000" points="904.8125,693.9805,908.8125,703.9805,912.8125,693.9805,908.8125,697.9805" style="stroke: #000000; stroke-width: 1.0;"/><line style="stroke: #000000; stroke-width: 1.5;" x1="1118.8125" x2="1192.8125" y1="671.9805" y2="671.9805"/><line style="stroke: #000000; stroke-width: 1.5;" x1="1192.8125" x2="1192.8125" y1="671.9805" y2="703.9805"/><polygon fill="#000000" points="1188.8125,693.9805,1192.8125,703.9805,1196.8125,693.9805,1192.8125,697.9805" style="stroke: #000000; stroke-width: 1.0;"/><line style="stroke: #000000; stroke-width: 1.5;" x1="825.0625" x2="690.3125" y1="627.9805" y2="627.9805"/><line style="stroke: #000000; stroke-width: 1.5;" x1="690.3125" x2="690.3125" y1="627.9805" y2="659.9805"/><polygon fill="#000000" points="686.3125,649.9805,690.3125,659.9805,694.3125,649.9805,690.3125,653.9805" style="stroke: #000000; stroke-width: 1.0;"/><line style="stroke: #000000; stroke-width: 1.5;" x1="886.0625" x2="1050.8125" y1="627.9805" y2="627.9805"/><line style="stroke: #000000; stroke-width: 1.5;" x1="1050.8125" x2="1050.8125" y1="627.9805" y2="659.9805"/><polygon fill="#000000" points="1046.8125,649.9805,1050.8125,659.9805,1054.8125,649.9805,1050.8125,653.9805" style="stroke: #000000; stroke-width: 1.0;"/><line style="stroke: #000000; stroke-width: 1.5;" x1="1402.8125" x2="1402.8125" y1="542.6118" y2="562.6118"/><polygon fill="#000000" points="1398.8125,552.6118,1402.8125,562.6118,1406.8125,552.6118,1402.8125,556.6118" style="stroke: #000000; stroke-width: 1.0;"/><line style="stroke: #000000; stroke-width: 1.5;" x1="1080.6875" x2="855.5625" y1="477.2432" y2="477.2432"/><line style="stroke: #000000; stroke-width: 1.5;" x1="855.5625" x2="855.5625" y1="477.2432" y2="509.2432"/><polygon fill="#000000" points="851.5625,499.2432,855.5625,509.2432,859.5625,499.2432,855.5625,503.2432" style="stroke: #000000; stroke-width: 1.0;"/><line style="stroke: #000000; stroke-width: 1.5;" x1="1177.6875" x2="1402.8125" y1="477.2432" y2="477.2432"/><line style="stroke: #000000; stroke-width: 1.5;" x1="1402.8125" x2="1402.8125" y1="477.2432" y2="509.2432"/><polygon fill="#000000" points="1398.8125,499.2432,1402.8125,509.2432,1406.8125,499.2432,1402.8125,503.2432" style="stroke: #000000; stroke-width: 1.0;"/><line style="stroke: #000000; stroke-width: 1.5;" x1="1289.5" x2="1129.1875" y1="219.7686" y2="219.7686"/><line style="stroke: #000000; stroke-width: 1.5;" x1="1129.1875" x2="1129.1875" y1="219.7686" y2="251.7686"/><polygon fill="#000000" points="1125.1875,241.7686,1129.1875,251.7686,1133.1875,241.7686,1129.1875,245.7686" style="stroke: #000000; stroke-width: 1.0;"/><line style="stroke: #000000; stroke-width: 1.5;" x1="1362.5" x2="1502.8125" y1="219.7686" y2="219.7686"/><line style="stroke: #000000; stroke-width: 1.5;" x1="1502.8125" x2="1502.8125" y1="219.7686" y2="251.7686"/><polygon fill="#000000" points="1498.8125,241.7686,1502.8125,251.7686,1506.8125,241.7686,1502.8125,245.7686" style="stroke: #000000; stroke-width: 1.0;"/><line style="stroke: #000000; stroke-width: 1.5;" x1="1326" x2="1326" y1="187.7686" y2="207.7686"/><polygon fill="#000000" points="1322,197.7686,1326,207.7686,1330,197.7686,1326,201.7686" style="stroke: #000000; stroke-width: 1.0;"/><line style="stroke: #000000; stroke-width: 1.5;" x1="1611.8125" x2="1611.8125" y1="966.8237" y2="1001.8237"/><polygon fill="#000000" points="1607.8125,991.8237,1611.8125,1001.8237,1615.8125,991.8237,1611.8125,995.8237" style="stroke: #000000; stroke-width: 1.0;"/><line style="stroke: #000000; stroke-width: 1.5;" x1="1729.8125" x2="1729.8125" y1="918.0864" y2="953.0864"/><polygon fill="#000000" points="1725.8125,943.0864,1729.8125,953.0864,1733.8125,943.0864,1729.8125,947.0864" style="stroke: #000000; stroke-width: 1.0;"/><line style="stroke: #000000; stroke-width: 1.5;" x1="1868.5625" x2="1868.5625" y1="918.0864" y2="953.0864"/><polygon fill="#000000" points="1864.5625,943.0864,1868.5625,953.0864,1872.5625,943.0864,1868.5625,947.0864" style="stroke: #000000; stroke-width: 1.0;"/><line style="stroke: #000000; stroke-width: 1.5;" x1="496.3125" x2="496.3125" y1="134.3999" y2="139.3999"/><line style="stroke: #000000; stroke-width: 1.5;" x1="496.3125" x2="1326" y1="139.3999" y2="139.3999"/><line style="stroke: #000000; stroke-width: 1.5;" x1="1326" x2="1326" y1="139.3999" y2="154.3999"/><polygon fill="#000000" points="1322,144.3999,1326,154.3999,1330,144.3999,1326,148.3999" style="stroke: #000000; stroke-width: 1.0;"/><line style="stroke: #000000; stroke-width: 1.5;" x1="1129.1875" x2="1129.1875" y1="285.1372" y2="290.1372"/><line style="stroke: #000000; stroke-width: 1.5;" x1="1129.1875" x2="375.125" y1="290.1372" y2="290.1372"/><line style="stroke: #000000; stroke-width: 1.5;" x1="375.125" x2="375.125" y1="290.1372" y2="305.1372"/><polygon fill="#000000" points="371.125,295.1372,375.125,305.1372,379.125,295.1372,375.125,299.1372" style="stroke: #000000; stroke-width: 1.0;"/><line style="stroke: #000000; stroke-width: 1.5;" x1="375.125" x2="375.125" y1="338.5059" y2="343.5059"/><line style="stroke: #000000; stroke-width: 1.5;" x1="375.125" x2="1129.1875" y1="343.5059" y2="343.5059"/><line style="stroke: #000000; stroke-width: 1.5;" x1="1129.1875" x2="1129.1875" y1="343.5059" y2="358.5059"/><polygon fill="#000000" points="1125.1875,348.5059,1129.1875,358.5059,1133.1875,348.5059,1129.1875,352.5059" style="stroke: #000000; stroke-width: 1.0;"/><line style="stroke: #000000; stroke-width: 1.5;" x1="1129.1875" x2="1129.1875" y1="391.8745" y2="396.8745"/><line style="stroke: #000000; stroke-width: 1.5;" x1="1129.1875" x2="1874.9375" y1="396.8745" y2="396.8745"/><line style="stroke: #000000; stroke-width: 1.5;" x1="1874.9375" x2="1874.9375" y1="396.8745" y2="411.8745"/><polygon fill="#000000" points="1870.9375,401.8745,1874.9375,411.8745,1878.9375,401.8745,1874.9375,405.8745" style="stroke: #000000; stroke-width: 1.0;"/><line style="stroke: #000000; stroke-width: 1.5;" x1="855.5625" x2="855.5625" y1="542.6118" y2="547.6118"/><line style="stroke: #000000; stroke-width: 1.5;" x1="855.5625" x2="179.75" y1="547.6118" y2="547.6118"/><line style="stroke: #000000; stroke-width: 1.5;" x1="179.75" x2="179.75" y1="547.6118" y2="562.6118"/><polygon fill="#000000" points="175.75,552.6118,179.75,562.6118,183.75,552.6118,179.75,556.6118" style="stroke: #000000; stroke-width: 1.0;"/><line style="stroke: #000000; stroke-width: 1.5;" x1="690.3125" x2="690.3125" y1="693.3491" y2="710.8491"/><line style="stroke: #000000; stroke-width: 1.5;" x1="690.3125" x2="63.5" y1="710.8491" y2="710.8491"/><line style="stroke: #000000; stroke-width: 1.5;" x1="63.5" x2="63.5" y1="710.8491" y2="728.3491"/><polygon fill="#000000" points="59.5,718.3491,63.5,728.3491,67.5,718.3491,63.5,722.3491" style="stroke: #000000; stroke-width: 1.0;"/><line style="stroke: #000000; stroke-width: 1.5;" x1="63.5" x2="63.5" y1="761.7178" y2="779.2178"/><line style="stroke: #000000; stroke-width: 1.5;" x1="63.5" x2="690.3125" y1="779.2178" y2="779.2178"/><line style="stroke: #000000; stroke-width: 1.5;" x1="690.3125" x2="690.3125" y1="779.2178" y2="796.7178"/><polygon fill="#000000" points="686.3125,786.7178,690.3125,796.7178,694.3125,786.7178,690.3125,790.7178" style="stroke: #000000; stroke-width: 1.0;"/><line style="stroke: #000000; stroke-width: 1.5;" x1="690.3125" x2="690.3125" y1="898.4551" y2="915.9551"/><line style="stroke: #000000; stroke-width: 1.5;" x1="690.3125" x2="1611.8125" y1="915.9551" y2="915.9551"/><line style="stroke: #000000; stroke-width: 1.5;" x1="1611.8125" x2="1611.8125" y1="915.9551" y2="933.4551"/><polygon fill="#000000" points="1607.8125,923.4551,1611.8125,933.4551,1615.8125,923.4551,1611.8125,927.4551" style="stroke: #000000; stroke-width: 1.0;"/><line style="stroke: #000000; stroke-width: 1.5;" x1="1611.8125" x2="1611.8125" y1="1035.1924" y2="1052.6924"/><line style="stroke: #000000; stroke-width: 1.5;" x1="1611.8125" x2="690.3125" y1="1052.6924" y2="1052.6924"/><line style="stroke: #000000; stroke-width: 1.5;" x1="690.3125" x2="690.3125" y1="1052.6924" y2="1070.1924"/><polygon fill="#000000" points="686.3125,1060.1924,690.3125,1070.1924,694.3125,1060.1924,690.3125,1064.1924" style="stroke: #000000; stroke-width: 1.0;"/><line style="stroke: #000000; stroke-width: 1.5;" x1="690.3125" x2="690.3125" y1="1171.9297" y2="1189.4297"/><line style="stroke: #000000; stroke-width: 1.5;" x1="690.3125" x2="63.5" y1="1189.4297" y2="1189.4297"/><line style="stroke: #000000; stroke-width: 1.5;" x1="63.5" x2="63.5" y1="1189.4297" y2="1206.9297"/><polygon fill="#000000" points="59.5,1196.9297,63.5,1206.9297,67.5,1196.9297,63.5,1200.9297" style="stroke: #000000; stroke-width: 1.0;"/><line style="stroke: #000000; stroke-width: 1.5;" x1="838.8125" x2="838.8125" y1="849.7178" y2="867.2178"/><line style="stroke: #000000; stroke-width: 1.5;" x1="838.8125" x2="1729.8125" y1="867.2178" y2="867.2178"/><line style="stroke: #000000; stroke-width: 1.5;" x1="1729.8125" x2="1729.8125" y1="867.2178" y2="884.7178"/><polygon fill="#000000" points="1725.8125,874.7178,1729.8125,884.7178,1733.8125,874.7178,1729.8125,878.7178" style="stroke: #000000; stroke-width: 1.0;"/><line style="stroke: #000000; stroke-width: 1.5;" x1="1729.8125" x2="1729.8125" y1="986.4551" y2="1003.9551"/><line style="stroke: #000000; stroke-width: 1.5;" x1="1729.8125" x2="838.8125" y1="1003.9551" y2="1003.9551"/><line style="stroke: #000000; stroke-width: 1.5;" x1="838.8125" x2="838.8125" y1="1003.9551" y2="1021.4551"/><polygon fill="#000000" points="834.8125,1011.4551,838.8125,1021.4551,842.8125,1011.4551,838.8125,1015.4551" style="stroke: #000000; stroke-width: 1.0;"/><line style="stroke: #000000; stroke-width: 1.5;" x1="838.8125" x2="838.8125" y1="1191.561" y2="1209.061"/><line style="stroke: #000000; stroke-width: 1.5;" x1="838.8125" x2="163" y1="1209.061" y2="1209.061"/><line style="stroke: #000000; stroke-width: 1.5;" x1="163" x2="163" y1="1209.061" y2="1226.561"/><polygon fill="#000000" points="159,1216.561,163,1226.561,167,1216.561,163,1220.561" style="stroke: #000000; stroke-width: 1.0;"/><line style="stroke: #000000; stroke-width: 1.5;" x1="978.8125" x2="978.8125" y1="849.7178" y2="867.2178"/><line style="stroke: #000000; stroke-width: 1.5;" x1="978.8125" x2="255.75" y1="867.2178" y2="867.2178"/><line style="stroke: #000000; stroke-width: 1.5;" x1="255.75" x2="255.75" y1="867.2178" y2="884.7178"/><polygon fill="#000000" points="251.75,874.7178,255.75,884.7178,259.75,874.7178,255.75,878.7178" style="stroke: #000000; stroke-width: 1.0;"/><line style="stroke: #000000; stroke-width: 1.5;" x1="1122.8125" x2="1122.8125" y1="849.7178" y2="867.2178"/><line style="stroke: #000000; stroke-width: 1.5;" x1="1122.8125" x2="1868.5625" y1="867.2178" y2="867.2178"/><line style="stroke: #000000; stroke-width: 1.5;" x1="1868.5625" x2="1868.5625" y1="867.2178" y2="884.7178"/><polygon fill="#000000" points="1864.5625,874.7178,1868.5625,884.7178,1872.5625,874.7178,1868.5625,878.7178" style="stroke: #000000; stroke-width: 1.0;"/><line style="stroke: #000000; stroke-width: 1.5;" x1="1868.5625" x2="1868.5625" y1="986.4551" y2="1003.9551"/><line style="stroke: #000000; stroke-width: 1.5;" x1="1868.5625" x2="1122.8125" y1="1003.9551" y2="1003.9551"/><line style="stroke: #000000; stroke-width: 1.5;" x1="1122.8125" x2="1122.8125" y1="1003.9551" y2="1021.4551"/><polygon fill="#000000" points="1118.8125,1011.4551,1122.8125,1021.4551,1126.8125,1011.4551,1122.8125,1015.4551" style="stroke: #000000; stroke-width: 1.0;"/><line style="stroke: #000000; stroke-width: 1.5;" x1="1122.8125" x2="1122.8125" y1="1123.1924" y2="1140.6924"/><line style="stroke: #000000; stroke-width: 1.5;" x1="1122.8125" x2="368.75" y1="1140.6924" y2="1140.6924"/><line style="stroke: #000000; stroke-width: 1.5;" x1="368.75" x2="368.75" y1="1140.6924" y2="1158.1924"/><polygon fill="#000000" points="364.75,1148.1924,368.75,1158.1924,372.75,1148.1924,368.75,1152.1924" style="stroke: #000000; stroke-width: 1.0;"/><line style="stroke: #000000; stroke-width: 1.5;" x1="1262.8125" x2="1262.8125" y1="849.7178" y2="867.2178"/><line style="stroke: #000000; stroke-width: 1.5;" x1="1262.8125" x2="433.125" y1="867.2178" y2="867.2178"/><line style="stroke: #000000; stroke-width: 1.5;" x1="433.125" x2="433.125" y1="867.2178" y2="884.7178"/><polygon fill="#000000" points="429.125,874.7178,433.125,884.7178,437.125,874.7178,433.125,878.7178" style="stroke: #000000; stroke-width: 1.0;"/><line style="stroke: #000000; stroke-width: 1.5;" x1="179.75" x2="179.75" y1="595.9805" y2="600.9805"/><line style="stroke: #000000; stroke-width: 1.5;" x1="179.75" x2="855.5625" y1="600.9805" y2="600.9805"/><line style="stroke: #000000; stroke-width: 1.5;" x1="855.5625" x2="855.5625" y1="600.9805" y2="615.9805"/><polygon fill="#000000" points="851.5625,605.9805,855.5625,615.9805,859.5625,605.9805,855.5625,609.9805" style="stroke: #000000; stroke-width: 1.0;"/><line style="stroke: #000000; stroke-width: 1.5;" x1="1402.8125" x2="1402.8125" y1="595.9805" y2="600.9805"/><line style="stroke: #000000; stroke-width: 1.5;" x1="1402.8125" x2="560.3125" y1="600.9805" y2="600.9805"/><line style="stroke: #000000; stroke-width: 1.5;" x1="560.3125" x2="560.3125" y1="600.9805" y2="615.9805"/><polygon fill="#000000" points="556.3125,605.9805,560.3125,615.9805,564.3125,605.9805,560.3125,609.9805" style="stroke: #000000; stroke-width: 1.0;"/><line style="stroke: #000000; stroke-width: 1.5;" x1="1874.9375" x2="1874.9375" y1="445.2432" y2="450.2432"/><line style="stroke: #000000; stroke-width: 1.5;" x1="1874.9375" x2="1129.1875" y1="450.2432" y2="450.2432"/><line style="stroke: #000000; stroke-width: 1.5;" x1="1129.1875" x2="1129.1875" y1="450.2432" y2="465.2432"/><polygon fill="#000000" points="1125.1875,455.2432,1129.1875,465.2432,1133.1875,455.2432,1129.1875,459.2432" style="stroke: #000000; stroke-width: 1.0;"/><line style="stroke: #000000; stroke-width: 1.5;" x1="1502.8125" x2="1502.8125" y1="285.1372" y2="290.1372"/><line style="stroke: #000000; stroke-width: 1.5;" x1="1502.8125" x2="592.3125" y1="290.1372" y2="290.1372"/><line style="stroke: #000000; stroke-width: 1.5;" x1="592.3125" x2="592.3125" y1="290.1372" y2="305.1372"/><polygon fill="#000000" points="588.3125,295.1372,592.3125,305.1372,596.3125,295.1372,592.3125,299.1372" style="stroke: #000000; stroke-width: 1.0;"/><text fill="#000000" font-family="sans-serif" font-size="18" lengthAdjust="spacingAndGlyphs" textLength="88" x="276.75" y="52.252">Customer</text><text fill="#000000" font-family="sans-serif" font-size="18" lengthAdjust="spacingAndGlyphs" textLength="38" x="1056.0625" y="52.252">ATM</text><text fill="#000000" font-family="sans-serif" font-size="18" lengthAdjust="spacingAndGlyphs" textLength="45" x="1759.5625" y="52.252">Bank</text><line style="stroke: #000000; stroke-width: 2.0;" x1="10" x2="10" y1="34.1553" y2="1381.9297"/><line style="stroke: #000000; stroke-width: 2.0;" x1="608.3125" x2="608.3125" y1="34.1553" y2="1381.9297"/><line style="stroke: #000000; stroke-width: 2.0;" x1="1552.8125" x2="1552.8125" y1="34.1553" y2="1381.9297"/><line style="stroke: #000000; stroke-width: 2.0;" x1="1931.5625" x2="1931.5625" y1="34.1553" y2="1381.9297"/><!--MD5=[41d4e6d12459db4824f85bf72539a803]
@startuml




skinparam stereotypeCBackgroundColor 1a66c2




skinparam backgroundColor fff







skinparam circledCharacter {
  radius 8
  fontSize 11
  fontName "Verdana"
}

skinparam class {
    backgroundColor ccc
  borderColor aaa
    fontColor 000
  fontName "Verdana"
  fontSize 11
  stereotypeFontColor 333
  stereotypeFontSize 11
    arrowColor 000
  arrowFontName "Verdana"
  arrowFontColor 333
  arrowFontSize 11

  attributeFontColor 333
  attributeFontSize 11
  attributeIconSize 11
}


skinparam actor {
    backgroundColor 2a86e2
  borderColor 1a66c2
    fontColor 000
  fontName "Verdana"
  fontSize 11
  stereotypeFontColor 333
  stereotypeFontSize 11
}

skinparam participant {
    backgroundColor ccc
  borderColor aaa
    fontColor 000
  fontName "Verdana"
  fontSize 11
  stereotypeFontColor 333
  stereotypeFontSize 11
}


skinparam interface {
    backgroundColor 2a86e2
  borderColor 1a66c2
    fontColor 000
  fontName "Verdana"
  fontSize 11
  stereotypeFontColor 333
  stereotypeFontSize 11
}

skinparam component {
    backgroundColor ccc
  borderColor aaa
    fontColor 000
  fontName "Verdana"
  fontSize 11
  stereotypeFontColor 333
  stereotypeFontSize 11
}

skinparam node {
    backgroundColor ccc
  borderColor aaa
    fontColor 000
  fontName "Verdana"
  fontSize 11
  stereotypeFontColor 333
  stereotypeFontSize 11
}

skinparam database {
    backgroundColor ccc
  borderColor aaa
    fontColor 000
  fontName "Verdana"
  fontSize 11
  stereotypeFontColor 333
  stereotypeFontSize 11
}

skinparam queue {
    backgroundColor ccc
  borderColor aaa
    fontColor 000
  fontName "Verdana"
  fontSize 11
  stereotypeFontColor 333
  stereotypeFontSize 11
}


skinparam usecase {
    backgroundColor ccc
  borderColor aaa
    fontColor 000
  fontName "Verdana"
  fontSize 11
  stereotypeFontColor 333
  stereotypeFontSize 11
    arrowColor 000
  arrowFontName "Verdana"
  arrowFontColor 333
  arrowFontSize 11
}

skinparam activity {
    backgroundColor ccc
  borderColor aaa
    fontColor 000
  fontName "Verdana"
  fontSize 11
  stereotypeFontColor 333
  stereotypeFontSize 11
    arrowColor 000
  arrowFontName "Verdana"
  arrowFontColor 333
  arrowFontSize 11
}

skinparam sequence {
    fontColor 000
  fontName "Verdana"
  fontSize 11
  stereotypeFontColor 333
  stereotypeFontSize 11
    arrowColor 000
  arrowFontName "Verdana"
  arrowFontColor 333
  arrowFontSize 11

  lifeLineBorderColor 000
  lifeLineBackgroundColor 333
}

skinparam boundary {
    backgroundColor 2a86e2
  borderColor 1a66c2
    fontColor 000
  fontName "Verdana"
  fontSize 11
  stereotypeFontColor 333
  stereotypeFontSize 11
}

skinparam control {
    backgroundColor 2a86e2
  borderColor 1a66c2
    fontColor 000
  fontName "Verdana"
  fontSize 11
  stereotypeFontColor 333
  stereotypeFontSize 11
}

skinparam entity {
    backgroundColor 2a86e2
  borderColor 1a66c2
    fontColor 000
  fontName "Verdana"
  fontSize 11
  stereotypeFontColor 333
  stereotypeFontSize 11
}


skinparam state {
    backgroundColor ccc
  borderColor aaa
    fontColor 000
  fontName "Verdana"
  fontSize 11
  stereotypeFontColor 333
  stereotypeFontSize 11
    arrowColor 000
  arrowFontName "Verdana"
  arrowFontColor 333
  arrowFontSize 11
  startColor 2a86e2
  endColor 1a66c2
}


skinparam object {
    backgroundColor ccc
  borderColor aaa
    fontColor 000
  fontName "Verdana"
  fontSize 11
  stereotypeFontColor 333
  stereotypeFontSize 11
    arrowColor 000
  arrowFontName "Verdana"
  arrowFontColor 333
  arrowFontSize 11
}


skinparam note {
    backgroundColor 2a86e2
  borderColor 1a66c2
    fontColor 000
  fontName "Verdana"
  fontSize 11
  stereotypeFontColor 333
  stereotypeFontSize 11
}

skinparam cloud {
    backgroundColor ccc
  borderColor aaa
    fontColor 000
  fontName "Verdana"
  fontSize 11
  stereotypeFontColor 333
  stereotypeFontSize 11
    arrowColor 000
  arrowFontName "Verdana"
  arrowFontColor 333
  arrowFontSize 11
}

skinparam rectangle {
    backgroundColor ccc
  borderColor aaa
    fontColor 000
  fontName "Verdana"
  fontSize 11
  stereotypeFontColor 333
  stereotypeFontSize 11
}

skinparam storage {
    backgroundColor ccc
  borderColor aaa
    fontColor 000
  fontName "Verdana"
  fontSize 11
  stereotypeFontColor 333
  stereotypeFontSize 11
}


title ATM Activity Diagram

|Customer|
start
:Insert Card;
|ATM|
:Verify Card;
if (Is Valid?) then (yes)
	:Request PIN;
	|Customer|
	:Enter PIN;
	|ATM|
	:Send Number & PIN;
	|Bank|
	:Verify PIN;
	|ATM|
	if (Correct PIN?) then (yes)
		:Show Menu;
		|Customer|
		:Chooses Option;
		|ATM|
		if (Option) then (Deposit)
			:Request Cash Insertion;
			|Customer|
			:Insert Cash;
			|ATM|
			:Count Cash;
			:Send Deposit Request;
			|Bank|
			:Deposit Funds;
			:Return Success;
			|ATM|
			:Show Completed;
			:Return Card;
			|Customer|
			stop
		else
			|ATM|			
			if (Withdraw/Transfer?) then (Withdraw)	
				|ATM|	
				if (Sufficient Funds?) then (yes)
					:Withdraw Request;
					:Request Balance;
					|Bank|
					:Return Balance;
					|ATM|
					|Bank|
					:Return Success;
					|ATM|
					:Show Completed;
					:Give Cash;
					:Return Card;
					|Customer|
					:Collect Cash;
					stop
				else (no)
					|ATM|
					:Show Error;
					:Return Card;
					|Customer|
					stop
				endif
			else (Transfer)
				|ATM|
				if (Sufficient Funds?) then (yes)
					:Transfer Request;
					:Request Balance;
					|Bank|
					:Return Balance;
					|ATM|
					|Bank|
					:Return Success;
					|ATM|
					:Show Completed;
					:Return Card;
					|Customer|
					stop
				else (no)
					|ATM|
					:Show Error;
					:Return Card;
					|Customer|
					stop
				endif
			endif
		endif
	else (no)
		|ATM|
		:Show Error;
		:Return Card;
		|Customer|
		stop
	endif

else (no)
	|ATM|
	:Return Card;
	|Customer|
	stop
endif


@enduml

PlantUML version 1.2019.13(Tue Dec 10 12:18:29 EST 2019)
(GPL source distribution)
Java Runtime: OpenJDK Runtime Environment
JVM: OpenJDK 64-Bit Server VM
Java Version: 13.0.1+9
Operating System: Linux
Default Encoding: UTF-8
Language: en
Country: US
--></g></svg>